<?xml version="1.0" standalone="no"?>
<!DOCTYPE svg PUBLIC "-//W3C//DTD SVG 20010904//EN"
 "http://www.w3.org/TR/2001/REC-SVG-20010904/DTD/svg10.dtd">
<svg version="1.0" xmlns="http://www.w3.org/2000/svg"
 width="896.000000pt" height="896.000000pt" viewBox="0 0 896.000000 896.000000"
 preserveAspectRatio="xMidYMid meet">
<metadata>
Created by potrace 1.11, written by Peter Selinger 2001-2013
</metadata>
<g transform="translate(0.000000,896.000000) scale(0.100000,-0.100000)"
fill="#000000" stroke="none">
<path d="M715 8943 c-310 -44 -568 -270 -667 -583 l-23 -75 0 -2110 0 -2110
27 -80 c94 -273 301 -470 576 -548 77 -22 82 -22 1287 -27 1338 -6 1239 0
1339 -69 59 -41 93 -83 130 -161 l31 -65 5 -1215 5 -1215 23 -74 c95 -310 333
-528 640 -587 110 -21 4094 -21 4204 0 342 66 603 337 658 686 6 43 10 750 10
2071 0 2208 3 2101 -61 2255 -100 241 -298 414 -555 486 l-79 23 -1210 5
-1210 5 -60 28 c-98 46 -174 130 -208 231 -15 45 -17 151 -17 1172 0 711 -4
1160 -11 1225 -34 338 -259 608 -591 711 l-73 23 -2070 1 c-1139 1 -2083 -1
-2100 -3z m1535 -2343 l5 -815 23 -65 c80 -222 259 -325 507 -292 200 26 331
154 371 359 11 61 14 219 14 854 l0 779 300 0 300 0 0 -819 c0 -688 -2 -833
-15 -907 -72 -418 -355 -700 -790 -789 -241 -49 -535 -22 -748 70 -118 50
-181 92 -273 178 -133 125 -210 258 -262 447 l-27 95 -3 863 -3 862 298 -2
298 -3 5 -815z m2819 -2687 c6 -21 94 -389 196 -817 102 -429 187 -781 189
-784 6 -6 6 -5 231 838 108 404 201 750 206 768 l11 32 311 -2 311 -3 220
-817 c121 -450 223 -815 227 -810 4 4 91 356 193 782 103 426 192 792 197 813
l10 37 309 0 c171 0 310 -3 310 -7 0 -5 -157 -559 -349 -1233 l-349 -1225
-298 -3 -299 -2 -225 772 c-279 960 -261 903 -270 887 -4 -8 -114 -384 -246
-837 l-239 -822 -300 2 -300 3 -342 1205 c-188 663 -345 1217 -348 1233 l-7
27 321 0 320 0 10 -37z"/>
<path d="M7246 8899 c-118 -28 -263 -142 -324 -256 -60 -114 -62 -130 -62
-754 0 -335 4 -588 10 -620 35 -191 205 -364 397 -404 99 -21 1147 -21 1246 0
185 39 345 190 392 370 21 82 22 1211 1 1290 -45 169 -169 303 -335 361 l-66
24 -610 -1 c-335 -1 -627 -5 -649 -10z m1235 -372 c18 -12 44 -38 57 -57 l22
-34 -2 -560 -3 -561 -23 -33 c-50 -70 -25 -67 -642 -67 l-555 0 -37 23 c-22
13 -45 40 -58 66 -20 43 -21 52 -18 594 3 541 3 551 24 579 11 15 36 38 54 51
l33 22 557 0 557 0 34 -23z"/>
<path d="M480 2099 c-148 -25 -299 -140 -369 -280 -61 -121 -62 -145 -59 -784
3 -550 4 -572 25 -625 33 -90 58 -133 110 -190 62 -69 149 -125 238 -153 69
-22 79 -22 660 -22 581 0 591 0 660 22 166 52 285 170 347 343 l23 65 0 595
c0 586 0 596 -22 665 -28 89 -84 176 -153 238 -57 52 -100 77 -190 110 -53 21
-73 21 -635 23 -320 1 -605 -2 -635 -7z m1190 -375 c19 -11 45 -35 57 -54 l23
-33 0 -561 c0 -542 -1 -562 -20 -594 -11 -18 -34 -41 -52 -52 -32 -19 -52 -20
-594 -20 l-561 0 -33 23 c-18 12 -43 35 -54 50 -21 28 -21 39 -24 555 -2 290
0 546 3 570 8 52 62 117 109 131 17 6 264 9 571 8 525 -2 541 -3 575 -23z"/>
</g>
</svg>
