<?xml version="1.0" encoding="utf-8"?>
<!-- Generator: Adobe Illustrator 22.1.0, SVG Export Plug-In . SVG Version: 6.00 Build 0)  -->
<svg version="1.1" id="Layer_1" xmlns="http://www.w3.org/2000/svg" xmlns:xlink="http://www.w3.org/1999/xlink" x="0px" y="0px"
	 viewBox="0 0 1440 2151" style="enable-background:new 0 0 1440 2151;" xml:space="preserve">
<style type="text/css">
	.st0{clip-path:url(#SVGID_2_);}
	.st1{fill:url(#SVGID_3_);}
	.st2{clip-path:url(#SVGID_2_);fill:url(#SVGID_4_);}
	.st3{clip-path:url(#SVGID_2_);fill:url(#SVGID_5_);}
	.st4{fill:#7165AB;}
	.st5{fill:#F9ECF3;}
	.st6{fill:#27235E;}
	.st7{fill:#231E5F;}
	.st8{fill:#FAECF3;}
	.st9{fill:#7065AC;}
	.st10{fill:#FFFFFF;}
	.st11{fill:none;}
	.st12{clip-path:url(#SVGID_2_);fill:#F9ECF3;}
	.st13{clip-path:url(#SVGID_2_);fill:#27235E;}
	.st14{clip-path:url(#SVGID_2_);fill:#7165AB;}
	.st15{clip-path:url(#SVGID_2_);fill:#FFFFFF;}
	.st16{clip-path:url(#SVGID_2_);fill:url(#SVGID_6_);}
	.st17{clip-path:url(#SVGID_2_);fill:url(#SVGID_7_);}
	.st18{clip-path:url(#SVGID_2_);fill:url(#SVGID_8_);}
	.st19{clip-path:url(#SVGID_2_);fill:url(#SVGID_9_);}
	.st20{clip-path:url(#SVGID_2_);fill:url(#SVGID_10_);}
	.st21{clip-path:url(#SVGID_2_);fill:url(#SVGID_11_);}
	.st22{clip-path:url(#SVGID_2_);fill:url(#SVGID_12_);}
	.st23{clip-path:url(#SVGID_2_);fill:url(#SVGID_13_);}
	.st24{clip-path:url(#SVGID_2_);fill:url(#SVGID_14_);}
	.st25{clip-path:url(#SVGID_2_);fill:url(#SVGID_15_);}
	.st26{clip-path:url(#SVGID_2_);fill:url(#SVGID_16_);}
	.st27{clip-path:url(#SVGID_2_);fill:url(#SVGID_17_);}
	.st28{clip-path:url(#SVGID_2_);fill:url(#SVGID_18_);}
	.st29{clip-path:url(#SVGID_2_);fill:url(#SVGID_19_);}
	.st30{clip-path:url(#SVGID_2_);fill:url(#SVGID_20_);}
	.st31{clip-path:url(#SVGID_2_);fill:url(#SVGID_21_);}
	.st32{clip-path:url(#SVGID_2_);fill:url(#SVGID_22_);}
	.st33{clip-path:url(#SVGID_2_);fill:url(#SVGID_23_);}
	.st34{clip-path:url(#SVGID_2_);fill:url(#SVGID_24_);}
	.st35{clip-path:url(#SVGID_2_);fill:url(#SVGID_25_);}
	.st36{clip-path:url(#SVGID_2_);fill:url(#SVGID_26_);}
	.st37{clip-path:url(#SVGID_2_);fill:url(#SVGID_27_);}
	.st38{clip-path:url(#SVGID_2_);fill:url(#SVGID_28_);}
	.st39{clip-path:url(#SVGID_2_);fill:url(#SVGID_29_);}
	.st40{clip-path:url(#SVGID_2_);fill:url(#SVGID_30_);}
	.st41{clip-path:url(#SVGID_2_);fill:url(#SVGID_31_);}
	.st42{clip-path:url(#SVGID_2_);fill:url(#SVGID_32_);}
	.st43{clip-path:url(#SVGID_2_);fill:url(#SVGID_33_);}
	.st44{clip-path:url(#SVGID_2_);fill:url(#SVGID_34_);}
	.st45{opacity:1.000000e-02;fill:#FFFFFF;}
	.st46{clip-path:url(#SVGID_36_);}
	.st47{clip-path:url(#SVGID_38_);fill:#6F64B6;}
	.st48{clip-path:url(#SVGID_40_);}
	.st49{clip-path:url(#SVGID_42_);fill:#FEEDFF;}
	.st50{clip-path:url(#SVGID_44_);}
	.st51{clip-path:url(#SVGID_46_);fill:#1D0063;}
	.st52{clip-path:url(#SVGID_48_);}
	.st53{clip-path:url(#SVGID_50_);fill:#6F64B6;}
	.st54{clip-path:url(#SVGID_52_);}
	.st55{clip-path:url(#SVGID_54_);fill:#FEEDFF;}
	.st56{clip-path:url(#SVGID_56_);}
	.st57{clip-path:url(#SVGID_58_);fill:#1D0063;}
	.st58{clip-path:url(#SVGID_60_);}
	.st59{clip-path:url(#SVGID_62_);fill:#6F64B6;}
	.st60{clip-path:url(#SVGID_64_);}
	.st61{clip-path:url(#SVGID_66_);fill:#FEEDFF;}
	.st62{clip-path:url(#SVGID_68_);}
	.st63{clip-path:url(#SVGID_70_);fill:#1D0063;}
	.st64{clip-path:url(#SVGID_72_);}
	.st65{clip-path:url(#SVGID_74_);fill:#6F64B6;}
	.st66{clip-path:url(#SVGID_76_);}
	.st67{clip-path:url(#SVGID_78_);fill:#FEEDFF;}
	.st68{clip-path:url(#SVGID_80_);}
	.st69{clip-path:url(#SVGID_82_);fill:#1D0063;}
	.st70{clip-path:url(#SVGID_84_);}
	.st71{clip-path:url(#SVGID_86_);fill:#6F64B6;}
	.st72{clip-path:url(#SVGID_88_);}
	.st73{clip-path:url(#SVGID_90_);fill:#FEEDFF;}
	.st74{clip-path:url(#SVGID_92_);}
	.st75{clip-path:url(#SVGID_94_);fill:#1D0063;}
	.st76{clip-path:url(#SVGID_96_);}
	.st77{clip-path:url(#SVGID_98_);fill:#6F64B6;}
	.st78{clip-path:url(#SVGID_100_);}
	.st79{clip-path:url(#SVGID_102_);fill:#FEEDFF;}
	.st80{clip-path:url(#SVGID_104_);}
	.st81{clip-path:url(#SVGID_106_);fill:#1D0063;}
	.st82{clip-path:url(#SVGID_108_);}
	.st83{clip-path:url(#SVGID_110_);fill:#6F64B6;}
	.st84{clip-path:url(#SVGID_112_);}
	.st85{clip-path:url(#SVGID_114_);fill:#FEEDFF;}
	.st86{clip-path:url(#SVGID_116_);}
	.st87{clip-path:url(#SVGID_118_);fill:#1D0063;}
	.st88{clip-path:url(#SVGID_120_);}
	.st89{clip-path:url(#SVGID_122_);fill:#6F64B6;}
	.st90{clip-path:url(#SVGID_124_);}
	.st91{clip-path:url(#SVGID_126_);fill:#FEEDFF;}
	.st92{clip-path:url(#SVGID_128_);}
	.st93{clip-path:url(#SVGID_130_);fill:#1D0063;}
</style>
<title>Group 13</title>
<desc>Created with Sketch.</desc>
<g>
	<defs>
		<rect id="SVGID_1_" x="-58.1" y="1001.7" width="985.6" height="1269.4"/>
	</defs>
	<clipPath id="SVGID_2_">
		<use xlink:href="#SVGID_1_"  style="overflow:visible;"/>
	</clipPath>
	<g class="st0">
		<linearGradient id="SVGID_3_" gradientUnits="userSpaceOnUse" x1="31.9219" y1="1822.5176" x2="566.4017" y2="1822.5176">
			<stop  offset="0" style="stop-color:#FBEEF4;stop-opacity:0"/>
			<stop  offset="0.2327" style="stop-color:#FBEEF4;stop-opacity:6.000000e-02"/>
			<stop  offset="0.6148" style="stop-color:#FAEDF4;stop-opacity:0.22"/>
			<stop  offset="1" style="stop-color:#F9ECF3;stop-opacity:0.6"/>
		</linearGradient>
		<polyline class="st1" points="100.9,2120.9 612.4,1820.5 105,1524.1 -371,1820.5 100.9,2120.9 		"/>
	</g>
	<linearGradient id="SVGID_4_" gradientUnits="userSpaceOnUse" x1="743.032" y1="1864.384" x2="743.032" y2="1864.384">
		<stop  offset="0" style="stop-color:#FBEEF4;stop-opacity:0"/>
		<stop  offset="1" style="stop-color:#F9ECF3;stop-opacity:0.7"/>
	</linearGradient>
	<path class="st2" d="M743,1864.4"/>
	<linearGradient id="SVGID_5_" gradientUnits="userSpaceOnUse" x1="356.6769" y1="2145.6541" x2="356.6769" y2="1750.8997">
		<stop  offset="0" style="stop-color:#362F66;stop-opacity:0"/>
		<stop  offset="1" style="stop-color:#27235E;stop-opacity:0.7209"/>
	</linearGradient>
	<polygon class="st3" points="612.4,1820.5 100.9,2120.9 100.9,2788.8 612.4,2483.4 	"/>
	<g class="st0">
		<polygon class="st4" points="337.5,1466.4 337.5,1488.8 356.9,1499.9 356.9,1477.6 		"/>
		<polygon class="st5" points="357.1,1455.1 337.5,1466.4 356.9,1477.6 376.3,1466.3 		"/>
		<polygon class="st6" points="356.9,1499.9 376.4,1488.5 376.3,1466.3 356.9,1477.6 		"/>
	</g>
	<g class="st0">
		<polygon class="st7" points="284.6,1777.9 326.8,1753.8 338.7,1705.9 324.3,1641.2 		"/>
		<polygon class="st8" points="356.9,1467.6 314.7,1491.7 370.2,1524.3 412.4,1500.2 		"/>
		<polygon class="st7" points="443.7,1868.4 485.9,1844.2 537.7,1672.6 507.6,1654.5 		"/>
		<polygon class="st7" points="260.5,1511 302.6,1486.9 302.6,1437.5 260.5,1461.6 		"/>
		<polygon class="st7" points="261.7,1665.3 289.3,1575.3 271.7,1504.6 260.5,1511 220.7,1488.1 		"/>
		<polygon class="st7" points="412.4,1500.2 424.4,1555.6 424.4,1605.1 435.4,1612.2 449.8,1671.1 420.8,1758.2 370.2,1524.3 		"/>
		<polygon class="st7" points="573.8,1601.4 573.8,1601.3 537.7,1621.9 537.7,1672.6 579.9,1648.5 579.9,1604.9 		"/>
		<polygon class="st8" points="521.8,1563.8 512.1,1569.5 501.7,1563.5 511.6,1557.8 490.6,1545.5 466.2,1559.8 441.7,1545.7 
			424.4,1555.6 537.7,1621.9 573.8,1601.3 573.9,1594.3 		"/>
		<polygon class="st9" points="424.4,1555.6 424.4,1605.1 463,1630.4 420.8,1758.2 370.2,1524.3 314.7,1491.7 261.7,1665.3 
			220.7,1488.1 260.5,1511 260.5,1461.6 131.5,1386.5 107.3,1400.3 107.3,1421.8 141.1,1444.7 200.2,1728.5 284.6,1777.9 
			324.3,1641.2 361.7,1821.3 443.7,1868.4 507.6,1654.5 537.7,1672.6 537.7,1621.9 		"/>
		<polygon class="st8" points="149.5,1348.3 131.8,1358.4 132,1386.2 131.5,1386.5 260.5,1461.6 302.6,1437.5 		"/>
	</g>
	<g class="st0">
		<polygon class="st10" points="269,1417.6 247.1,1430.3 268.9,1442.9 290.5,1430.2 		"/>
	</g>
	<g class="st0">
		<polygon class="st10" points="132,1357.9 107.3,1372.1 131.8,1386.2 156,1371.9 		"/>
	</g>
	<g class="st0">
		<polygon class="st4" points="562.1,1635.8 562.1,1607.7 537.6,1593.8 537.6,1621.7 		"/>
		<polygon class="st5" points="537.4,1650 562.1,1635.8 537.6,1621.7 513.4,1636 		"/>
		<polygon class="st6" points="537.6,1593.8 513.2,1608.1 513.4,1636 537.6,1621.7 		"/>
	</g>
	<g class="st0">
		<g>
			<polygon class="st11" points="518.9,1582.4 508.6,1588.5 508.6,1588.5 518.9,1582.5 518.9,1594.4 518.8,1594.4 518.8,1594.4 
				529.3,1588.4 			"/>
			<polygon class="st6" points="518.9,1582.5 508.6,1588.5 518.8,1594.4 518.9,1594.4 			"/>
		</g>
		<g>
			<polygon class="st11" points="518.9,1594.4 518.9,1582.5 529.3,1588.4 518.9,1582.4 508.6,1588.5 518.8,1594.4 519,1594.4 			"/>
			<polygon class="st4" points="518.9,1594.4 519,1594.4 529.3,1588.4 518.9,1582.5 			"/>
		</g>
	</g>
	<g class="st0">
		<g>
			<polygon class="st11" points="380.1,1495.4 369.8,1501.5 369.8,1501.5 380.1,1495.5 380.1,1507.4 380,1507.4 380,1507.5 
				390.5,1501.4 			"/>
			<polygon class="st6" points="380.1,1495.5 369.8,1501.5 380,1507.4 380.1,1507.4 			"/>
		</g>
		<g>
			<polygon class="st11" points="380.1,1507.4 380.1,1495.5 390.5,1501.4 380.1,1495.4 369.8,1501.5 380,1507.5 380.1,1507.4 			"/>
			<polygon class="st4" points="380.1,1507.4 380.1,1507.4 390.5,1501.4 380.1,1495.5 			"/>
		</g>
	</g>
	<g class="st0">
		<g>
			<polygon class="st11" points="236.7,1424.3 226.4,1430.3 226.4,1430.3 236.7,1424.3 236.7,1436.2 236.6,1436.3 236.6,1436.3 
				247.1,1430.2 			"/>
			<polygon class="st6" points="236.7,1424.3 226.4,1430.3 236.6,1436.3 236.7,1436.2 			"/>
		</g>
		<g>
			<polygon class="st11" points="236.7,1436.2 236.7,1424.3 247.1,1430.2 236.7,1424.3 226.4,1430.3 236.6,1436.3 236.7,1436.2 			
				"/>
			<polygon class="st4" points="236.7,1436.2 236.7,1436.2 247.1,1430.2 236.7,1424.3 			"/>
		</g>
	</g>
	<g class="st0">
		<g>
			<polygon class="st11" points="202.2,1389.1 191.9,1395.2 191.9,1395.2 202.2,1389.2 202.2,1401.1 202.1,1401.1 202.1,1401.2 
				212.6,1395.1 			"/>
			<polygon class="st6" points="202.2,1389.2 191.9,1395.2 202.1,1401.1 202.2,1401.1 			"/>
		</g>
		<g>
			<polygon class="st11" points="202.2,1401.1 202.2,1389.2 212.6,1395.1 202.2,1389.1 191.9,1395.2 202.1,1401.2 202.2,1401.1 			
				"/>
			<polygon class="st4" points="202.2,1401.1 202.2,1401.1 212.6,1395.1 202.2,1389.2 			"/>
		</g>
	</g>
	<g class="st0">
		<g>
			<polygon class="st11" points="166.7,1366 156.4,1372.1 156.4,1372.1 166.7,1366.1 166.7,1378 166.6,1378 166.6,1378 177.1,1372 
							"/>
			<polygon class="st6" points="166.7,1366.1 156.4,1372.1 166.6,1378 166.7,1378 			"/>
		</g>
		<g>
			<polygon class="st11" points="166.7,1378 166.7,1366.1 177.1,1372 166.7,1366 156.4,1372.1 166.6,1378 166.7,1378 			"/>
			<polygon class="st4" points="166.7,1378 166.7,1378 177.1,1372 166.7,1366.1 			"/>
		</g>
	</g>
	<g class="st0">
		<polygon class="st5" points="573.8,1608.5 580,1604.9 573.8,1601.4 567.8,1605 		"/>
		<polygon class="st6" points="573.8,1594.4 567.7,1598 567.8,1605 573.8,1601.4 		"/>
	</g>
	<g class="st0">
		<polygon class="st4" points="567.7,1487.1 567.7,1494.1 573.8,1497.6 573.8,1490.6 		"/>
		<polygon class="st5" points="573.9,1483.5 567.7,1487.1 573.8,1490.6 579.9,1487 		"/>
		<polygon class="st6" points="573.8,1497.6 580,1494 579.9,1487 573.8,1490.6 		"/>
	</g>
	<g class="st0">
		<polygon class="st4" points="531.6,1509.5 531.6,1516.5 537.7,1520 537.7,1513 		"/>
		<polygon class="st5" points="537.8,1505.9 531.6,1509.5 537.7,1513 543.8,1509.5 		"/>
		<polygon class="st6" points="537.7,1520 543.8,1516.4 543.8,1509.5 537.7,1513 		"/>
	</g>
	<g class="st0">
		<polygon class="st4" points="501.5,1410.5 501.5,1422.6 512,1428.5 512,1416.6 		"/>
		<polygon class="st5" points="512.1,1404.4 501.5,1410.5 512,1416.6 522.4,1410.4 		"/>
		<polygon class="st6" points="512,1428.5 522.5,1422.4 522.4,1410.4 512,1416.6 		"/>
	</g>
	<g class="st0">
		<polygon class="st4" points="459.7,1458.7 459.7,1470.8 470.1,1476.7 470.1,1464.7 		"/>
		<polygon class="st5" points="470.2,1452.6 459.7,1458.7 470.1,1464.7 480.6,1458.6 		"/>
		<polygon class="st6" points="470.1,1476.7 480.6,1470.6 480.6,1458.6 470.1,1464.7 		"/>
	</g>
	<g class="st0">
		<polygon class="st4" points="370.2,1443.4 370.2,1454.9 380.2,1460.5 380.2,1449.1 		"/>
		<polygon class="st5" points="380.2,1437.6 370.2,1443.4 380.2,1449.1 390.1,1443.3 		"/>
		<polygon class="st6" points="380.2,1460.5 390.1,1454.7 390.1,1443.3 380.2,1449.1 		"/>
	</g>
	<g class="st0">
		<polygon class="st4" points="226.7,1387.8 226.7,1399.3 236.7,1404.9 236.7,1393.5 		"/>
		<polygon class="st5" points="236.8,1382 226.7,1387.8 236.7,1393.5 246.6,1387.7 		"/>
		<polygon class="st6" points="236.7,1404.9 246.7,1399.1 246.6,1387.7 236.7,1393.5 		"/>
	</g>
	<g class="st0">
		<polygon class="st4" points="192.2,1274.4 192.2,1285.9 202.2,1291.5 202.2,1280.1 		"/>
		<polygon class="st5" points="202.3,1268.6 192.2,1274.4 202.2,1280.1 212.1,1274.3 		"/>
		<polygon class="st6" points="202.2,1291.5 212.2,1285.7 212.1,1274.3 202.2,1280.1 		"/>
	</g>
	<g class="st0">
		<polygon class="st4" points="156.8,1243.3 156.8,1254.8 166.8,1260.5 166.8,1249.1 		"/>
		<polygon class="st5" points="166.8,1237.5 156.8,1243.3 166.8,1249.1 176.7,1243.3 		"/>
		<polygon class="st6" points="166.8,1260.5 176.7,1254.7 176.7,1243.3 166.8,1249.1 		"/>
	</g>
	<g class="st0">
		<polygon class="st4" points="247.1,1416 247.1,1430.5 268.8,1442.8 268.8,1428.4 		"/>
		<polygon class="st5" points="268.9,1403.3 247.1,1416 268.8,1428.4 290.3,1415.8 		"/>
		<polygon class="st6" points="268.8,1442.8 290.5,1430.2 290.3,1415.8 268.8,1428.4 		"/>
	</g>
	<g class="st0">
		<polygon class="st4" points="330.7,1383.9 330.7,1406.6 350.4,1417.8 350.4,1395.3 		"/>
		<polygon class="st5" points="350.6,1372.4 330.7,1383.9 350.4,1395.3 370,1383.8 		"/>
		<polygon class="st6" points="350.4,1417.8 370.2,1406.3 370,1383.8 350.4,1395.3 		"/>
	</g>
	<g class="st0">
		<polygon class="st4" points="441.7,1505.9 441.7,1534 466.1,1547.8 466.1,1519.9 		"/>
		<polygon class="st5" points="466.3,1491.7 441.7,1505.9 466.1,1519.9 490.4,1505.7 		"/>
		<polygon class="st6" points="466.1,1547.8 490.6,1533.6 490.4,1505.7 466.1,1519.9 		"/>
	</g>
	<g class="st0">
		<polygon class="st4" points="107.5,1280.1 107.5,1308.1 132,1322 132,1294.1 		"/>
		<polygon class="st5" points="132.2,1265.8 107.5,1280.1 132,1294.1 156.2,1279.9 		"/>
		<polygon class="st6" points="132,1322 156.4,1307.8 156.2,1279.9 132,1294.1 		"/>
	</g>
	<g class="st0">
		<polygon class="st6" points="459.9,1588.3 470.1,1582.3 469.7,1570.8 459.8,1576.6 		"/>
		<g>
			<g>
				<g>
					<polygon class="st11" points="470.1,1570.4 459.8,1576.4 459.9,1576.4 470.1,1570.5 470.1,1582.3 470,1582.4 470.1,1582.4 
						480.5,1576.3 					"/>
					<polygon class="st6" points="470.1,1570.5 459.9,1576.4 470,1582.4 470.1,1582.3 					"/>
				</g>
				<g>
					<polygon class="st11" points="470.1,1582.3 470.1,1570.5 480.5,1576.3 470.1,1570.4 459.8,1576.4 470.1,1582.4 470.2,1582.3 
											"/>
					<polygon class="st4" points="470.1,1582.3 470.2,1582.3 480.5,1576.3 470.1,1570.5 					"/>
				</g>
			</g>
			<polygon class="st5" points="470.1,1594.2 459.9,1588.3 470.2,1582.3 			"/>
		</g>
	</g>
	<g class="st0">
		<polygon class="st6" points="150.3,1416.5 166.7,1406.9 166,1388.5 150.2,1397.8 		"/>
		<g>
			<g>
				<g>
					<polygon class="st11" points="166.7,1387.8 150.2,1397.5 150.3,1397.5 166.7,1388 166.7,1406.9 166.5,1407 166.6,1407.1 
						183.3,1397.4 					"/>
					<polygon class="st6" points="166.7,1388 150.3,1397.5 166.5,1407 166.7,1406.9 					"/>
				</g>
				<g>
					<polygon class="st11" points="166.7,1406.9 166.7,1388 183.3,1397.4 166.7,1387.8 150.2,1397.5 166.6,1407.1 166.7,1407 					
						"/>
					<polygon class="st4" points="166.7,1406.9 166.7,1407 183.3,1397.4 166.7,1388 					"/>
				</g>
			</g>
			<polygon class="st5" points="166.6,1425.9 150.3,1416.5 166.7,1407 			"/>
		</g>
	</g>
	<g class="st0">
		<polygon class="st6" points="330.7,1524.2 350.3,1512.8 349.5,1490.8 330.7,1501.9 		"/>
		<g>
			<g>
				<g>
					<polygon class="st11" points="350.3,1490 330.7,1501.6 330.7,1501.6 350.3,1490.2 350.3,1512.8 350.1,1512.9 350.2,1513 
						370.2,1501.4 					"/>
					<polygon class="st6" points="350.3,1490.2 330.7,1501.6 350.1,1512.9 350.3,1512.8 					"/>
				</g>
				<g>
					<polygon class="st11" points="350.3,1512.8 350.3,1490.2 370.2,1501.4 350.3,1490 330.7,1501.6 350.2,1513 350.4,1512.8 					
						"/>
					<polygon class="st4" points="350.3,1512.8 350.4,1512.8 370.2,1501.4 350.3,1490.2 					"/>
				</g>
			</g>
			<polygon class="st5" points="350.2,1535.4 330.7,1524.2 350.4,1512.8 			"/>
		</g>
	</g>
	<g class="st0">
		<polygon class="st6" points="206.7,1441.6 216.5,1435.9 216.1,1424.9 206.7,1430.4 		"/>
		<g>
			<g>
				<g>
					<polygon class="st11" points="216.5,1424.5 206.7,1430.3 206.7,1430.3 216.5,1424.6 216.5,1435.9 216.4,1435.9 216.4,1436 
						226.4,1430.2 					"/>
					<polygon class="st6" points="216.5,1424.6 206.7,1430.3 216.4,1435.9 216.5,1435.9 					"/>
				</g>
				<g>
					<polygon class="st11" points="216.5,1435.9 216.5,1424.6 226.4,1430.2 216.5,1424.5 206.7,1430.3 216.4,1436 216.5,1435.9 
											"/>
					<polygon class="st4" points="216.5,1435.9 216.5,1435.9 226.4,1430.2 216.5,1424.6 					"/>
				</g>
			</g>
			<polygon class="st5" points="216.4,1447.2 206.7,1441.6 216.5,1435.9 			"/>
		</g>
	</g>
	<polygon class="st12" points="131.5,1414.2 107.3,1400.3 131.7,1386.3 	"/>
	<polygon class="st13" points="511.6,1557.8 511.5,1569.2 501.7,1563.5 	"/>
	<path class="st14" d="M356.9,1477.6"/>
	<polygon class="st14" points="356.6,1489.9 337.5,1478.7 356.9,1477.6 	"/>
	<polygon class="st14" points="131.9,1357.9 131.7,1386.3 156,1372 	"/>
	<path class="st14" d="M107.3,1372.4"/>
	<path class="st15" d="M107.3,1399.5"/>
	<polygon class="st13" points="356.7,1477.6 376.3,1466.1 376.3,1479 356.7,1489.9 	"/>
	<polygon class="st14" points="337.5,1466.4 337.5,1478.7 356.7,1489.9 356.7,1477.6 	"/>
	<linearGradient id="SVGID_6_" gradientUnits="userSpaceOnUse" x1="340.536" y1="1535.4384" x2="340.536" y2="1406.6444">
		<stop  offset="0" style="stop-color:#FFFFFF;stop-opacity:0"/>
		<stop  offset="1" style="stop-color:#FFFFFF;stop-opacity:0.7"/>
	</linearGradient>
	<polygon class="st16" points="330.7,1406.6 330.7,1524.2 350.2,1535.4 350.4,1417.8 	"/>
	<linearGradient id="SVGID_7_" gradientUnits="userSpaceOnUse" x1="119.6542" y1="1414.1925" x2="119.6542" y2="1308.1484">
		<stop  offset="0" style="stop-color:#FFFFFF;stop-opacity:0"/>
		<stop  offset="1" style="stop-color:#FFFFFF;stop-opacity:0.7"/>
	</linearGradient>
	<polygon class="st17" points="107.5,1308.1 132,1322 131.5,1414.2 107.3,1400.3 	"/>
	<linearGradient id="SVGID_8_" gradientUnits="userSpaceOnUse" x1="143.8562" y1="1372.4019" x2="143.8562" y2="1309.9628">
		<stop  offset="0" style="stop-color:#FFFFFF;stop-opacity:0"/>
		<stop  offset="1" style="stop-color:#FFFFFF;stop-opacity:0.7"/>
	</linearGradient>
	<polygon class="st18" points="156.4,1307.8 156.4,1372.1 131.3,1386.8 132,1322 	"/>
	<linearGradient id="SVGID_9_" gradientUnits="userSpaceOnUse" x1="161.5786" y1="1379.6946" x2="161.5786" y2="1261.1317">
		<stop  offset="0" style="stop-color:#FFFFFF;stop-opacity:0"/>
		<stop  offset="1" style="stop-color:#FFFFFF;stop-opacity:0.7"/>
	</linearGradient>
	<polygon class="st19" points="156.8,1254.8 166.8,1260.5 166.6,1378 156.4,1372.1 	"/>
	<linearGradient id="SVGID_10_" gradientUnits="userSpaceOnUse" x1="171.8698" y1="1355.597" x2="171.8698" y2="1258.1003">
		<stop  offset="0" style="stop-color:#FFFFFF;stop-opacity:0"/>
		<stop  offset="1" style="stop-color:#FFFFFF;stop-opacity:0.7"/>
	</linearGradient>
	<polygon class="st20" points="176.7,1254.7 166.8,1260.5 166.6,1378 177.1,1372 	"/>
	<linearGradient id="SVGID_11_" gradientUnits="userSpaceOnUse" x1="197.039" y1="1380.1675" x2="197.039" y2="1289.0824">
		<stop  offset="0" style="stop-color:#FFFFFF;stop-opacity:0"/>
		<stop  offset="1" style="stop-color:#FFFFFF;stop-opacity:0.7"/>
	</linearGradient>
	<polygon class="st21" points="192.2,1285.9 202.2,1291.5 202.1,1401.1 191.9,1395.2 	"/>
	<linearGradient id="SVGID_12_" gradientUnits="userSpaceOnUse" x1="207.3216" y1="1380.1389" x2="207.3216" y2="1288.9294">
		<stop  offset="0" style="stop-color:#FFFFFF;stop-opacity:0"/>
		<stop  offset="1" style="stop-color:#FFFFFF;stop-opacity:0.7"/>
	</linearGradient>
	<polygon class="st22" points="212.2,1285.7 202.2,1291.5 202.1,1401.1 212.6,1395.1 	"/>
	<linearGradient id="SVGID_13_" gradientUnits="userSpaceOnUse" x1="453.4267" y1="1554.0477" x2="454.3011" y2="1542.6808">
		<stop  offset="0" style="stop-color:#FFFFFF;stop-opacity:0"/>
		<stop  offset="1" style="stop-color:#FFFFFF;stop-opacity:0.7"/>
	</linearGradient>
	<polygon class="st23" points="441.7,1534 441.8,1545.8 466.2,1559.8 466.1,1547.8 	"/>
	<linearGradient id="SVGID_14_" gradientUnits="userSpaceOnUse" x1="477.6751" y1="1555.0865" x2="478.7009" y2="1541.7507">
		<stop  offset="0" style="stop-color:#FFFFFF;stop-opacity:0"/>
		<stop  offset="1" style="stop-color:#FFFFFF;stop-opacity:0.7"/>
	</linearGradient>
	<polygon class="st24" points="490.6,1533.6 490.5,1545.6 466.2,1559.8 466.1,1547.8 	"/>
	<linearGradient id="SVGID_15_" gradientUnits="userSpaceOnUse" x1="534.6807" y1="1586.1948" x2="534.6807" y2="1520.3365">
		<stop  offset="0" style="stop-color:#FFFFFF;stop-opacity:0"/>
		<stop  offset="1" style="stop-color:#FFFFFF;stop-opacity:0.7"/>
	</linearGradient>
	<polygon class="st25" points="531.6,1516.5 531.6,1586.4 537.7,1590.9 537.7,1520 	"/>
	<linearGradient id="SVGID_16_" gradientUnits="userSpaceOnUse" x1="540.7906" y1="1586.1888" x2="540.7906" y2="1520.2452">
		<stop  offset="0" style="stop-color:#FFFFFF;stop-opacity:0"/>
		<stop  offset="1" style="stop-color:#FFFFFF;stop-opacity:0.7"/>
	</linearGradient>
	<polygon class="st26" points="543.8,1516.4 537.7,1520 537.7,1590.9 543.8,1587.2 	"/>
	<linearGradient id="SVGID_17_" gradientUnits="userSpaceOnUse" x1="506.7869" y1="1560.2079" x2="506.7869" y2="1430.1073">
		<stop  offset="0" style="stop-color:#FFFFFF;stop-opacity:0"/>
		<stop  offset="1" style="stop-color:#FFFFFF;stop-opacity:0.7"/>
	</linearGradient>
	<polygon class="st27" points="501.5,1422.6 512,1428.5 512.1,1569.5 501.7,1563.5 	"/>
	<linearGradient id="SVGID_18_" gradientUnits="userSpaceOnUse" x1="517.2513" y1="1560.1975" x2="517.2513" y2="1429.9504">
		<stop  offset="0" style="stop-color:#FFFFFF;stop-opacity:0"/>
		<stop  offset="1" style="stop-color:#FFFFFF;stop-opacity:0.7"/>
	</linearGradient>
	<polygon class="st28" points="522.5,1422.4 512,1428.5 512.1,1569.5 522.4,1563.5 	"/>
	<linearGradient id="SVGID_19_" gradientUnits="userSpaceOnUse" x1="464.8995" y1="1586.3759" x2="464.8995" y2="1477.0851">
		<stop  offset="0" style="stop-color:#FFFFFF;stop-opacity:0"/>
		<stop  offset="1" style="stop-color:#FFFFFF;stop-opacity:0.7"/>
	</linearGradient>
	<polygon class="st29" points="459.7,1470.8 459.9,1588.3 470.1,1594.2 470.1,1476.7 	"/>
	<linearGradient id="SVGID_20_" gradientUnits="userSpaceOnUse" x1="475.3963" y1="1575.2561" x2="475.3963" y2="1476.3212">
		<stop  offset="0" style="stop-color:#FFFFFF;stop-opacity:0"/>
		<stop  offset="1" style="stop-color:#FFFFFF;stop-opacity:0.7"/>
	</linearGradient>
	<polygon class="st30" points="480.6,1470.6 470.1,1476.7 470.1,1582.3 480.5,1576.3 	"/>
	<g class="st0">
		<polygon class="st4" points="206.5,1306.3 206.5,1317.8 216.5,1323.5 216.5,1312.1 		"/>
		<polygon class="st5" points="216.6,1300.5 206.5,1306.3 216.5,1312.1 226.4,1306.3 		"/>
		<polygon class="st6" points="216.5,1323.5 226.5,1317.7 226.4,1306.3 216.5,1312.1 		"/>
	</g>
	<g class="st0">
		<polygon class="st4" points="150.2,1331.6 150.2,1350.6 166.8,1360 166.8,1341.1 		"/>
		<polygon class="st5" points="166.9,1322 150.2,1331.6 166.8,1341.1 183.2,1331.5 		"/>
		<polygon class="st6" points="166.8,1360 183.3,1350.4 183.2,1331.5 166.8,1341.1 		"/>
	</g>
	<g class="st0">
		<polygon class="st4" points="513.2,1440.8 513.2,1468.9 537.6,1482.8 537.6,1454.9 		"/>
		<polygon class="st5" points="537.8,1426.6 513.2,1440.8 537.6,1454.9 561.9,1440.6 		"/>
		<polygon class="st6" points="537.6,1482.8 562.1,1468.5 561.9,1440.6 537.6,1454.9 		"/>
	</g>
	<linearGradient id="SVGID_21_" gradientUnits="userSpaceOnUse" x1="211.5058" y1="1423.6288" x2="211.5058" y2="1321.426">
		<stop  offset="0" style="stop-color:#FFFFFF;stop-opacity:0"/>
		<stop  offset="1" style="stop-color:#FFFFFF;stop-opacity:0.7"/>
	</linearGradient>
	<polygon class="st31" points="206.5,1317.8 216.5,1323.5 216.4,1447.2 206.7,1441.6 	"/>
	<linearGradient id="SVGID_22_" gradientUnits="userSpaceOnUse" x1="221.4967" y1="1414.3822" x2="221.4967" y2="1320.9595">
		<stop  offset="0" style="stop-color:#FFFFFF;stop-opacity:0"/>
		<stop  offset="1" style="stop-color:#FFFFFF;stop-opacity:0.7"/>
	</linearGradient>
	<polygon class="st32" points="226.5,1317.7 216.5,1323.5 216.5,1435.9 226.4,1430.2 226.4,1399.3 	"/>
	<linearGradient id="SVGID_23_" gradientUnits="userSpaceOnUse" x1="231.5319" y1="1429.4938" x2="231.5319" y2="1400.2953">
		<stop  offset="0" style="stop-color:#FFFFFF;stop-opacity:0"/>
		<stop  offset="1" style="stop-color:#FFFFFF;stop-opacity:0.7"/>
	</linearGradient>
	<polygon class="st33" points="236.7,1404.9 236.7,1436.2 226.4,1430.2 226.4,1399.3 	"/>
	<linearGradient id="SVGID_24_" gradientUnits="userSpaceOnUse" x1="241.8844" y1="1429.4651" x2="241.8844" y2="1400.1426">
		<stop  offset="0" style="stop-color:#FFFFFF;stop-opacity:0"/>
		<stop  offset="1" style="stop-color:#FFFFFF;stop-opacity:0.7"/>
	</linearGradient>
	<polygon class="st34" points="246.7,1399.1 236.7,1404.9 236.7,1436.2 247.1,1430.5 	"/>
	<linearGradient id="SVGID_25_" gradientUnits="userSpaceOnUse" x1="360.2469" y1="1506.078" x2="360.2469" y2="1411.7839">
		<stop  offset="0" style="stop-color:#FFFFFF;stop-opacity:0"/>
		<stop  offset="1" style="stop-color:#FFFFFF;stop-opacity:0.7"/>
	</linearGradient>
	<polygon class="st35" points="350.4,1417.8 370.2,1406.3 370.2,1501.4 350.3,1512.8 	"/>
	<linearGradient id="SVGID_26_" gradientUnits="userSpaceOnUse" x1="371.4362" y1="1454.7889" x2="371.4362" y2="1454.7889">
		<stop  offset="0" style="stop-color:#FFFFFF;stop-opacity:0"/>
		<stop  offset="1" style="stop-color:#FFFFFF;stop-opacity:0.7"/>
	</linearGradient>
	<path class="st36" d="M371.4,1454.8"/>
	<linearGradient id="SVGID_27_" gradientUnits="userSpaceOnUse" x1="375.1562" y1="1504.0618" x2="375.1562" y2="1457.5559">
		<stop  offset="0" style="stop-color:#FFFFFF;stop-opacity:0"/>
		<stop  offset="1" style="stop-color:#FFFFFF;stop-opacity:0.7"/>
	</linearGradient>
	<polygon class="st37" points="370.2,1454.9 370.2,1501.4 380.1,1507.4 380.2,1460.5 	"/>
	<linearGradient id="SVGID_28_" gradientUnits="userSpaceOnUse" x1="385.3076" y1="1504.0518" x2="385.3076" y2="1457.4066">
		<stop  offset="0" style="stop-color:#FFFFFF;stop-opacity:0"/>
		<stop  offset="1" style="stop-color:#FFFFFF;stop-opacity:0.7"/>
	</linearGradient>
	<polygon class="st38" points="390.1,1454.7 380.2,1460.5 380.1,1507.4 390.5,1501.4 	"/>
	<linearGradient id="SVGID_29_" gradientUnits="userSpaceOnUse" x1="525.4197" y1="1638.6233" x2="525.4197" y2="1478.9313">
		<stop  offset="0" style="stop-color:#FFFFFF;stop-opacity:0"/>
		<stop  offset="1" style="stop-color:#FFFFFF;stop-opacity:0.7"/>
	</linearGradient>
	<polygon class="st39" points="513.2,1469.7 513.4,1636 537.4,1650 537.6,1483.6 	"/>
	<linearGradient id="SVGID_30_" gradientUnits="userSpaceOnUse" x1="549.7629" y1="1638.599" x2="549.7629" y2="1478.5662">
		<stop  offset="0" style="stop-color:#FFFFFF;stop-opacity:0"/>
		<stop  offset="1" style="stop-color:#FFFFFF;stop-opacity:0.7"/>
	</linearGradient>
	<polygon class="st40" points="562.1,1469.3 537.6,1483.6 537.4,1650 562.1,1635.8 	"/>
	<linearGradient id="SVGID_31_" gradientUnits="userSpaceOnUse" x1="570.79" y1="1601.2478" x2="570.79" y2="1499.9576">
		<stop  offset="0" style="stop-color:#FFFFFF;stop-opacity:0"/>
		<stop  offset="1" style="stop-color:#FFFFFF;stop-opacity:0.7"/>
	</linearGradient>
	<polygon class="st41" points="567.7,1494.1 567.8,1605 573.8,1608.5 573.8,1497.6 	"/>
	<linearGradient id="SVGID_32_" gradientUnits="userSpaceOnUse" x1="576.8759" y1="1601.2417" x2="576.8759" y2="1499.8663">
		<stop  offset="0" style="stop-color:#FFFFFF;stop-opacity:0"/>
		<stop  offset="1" style="stop-color:#FFFFFF;stop-opacity:0.7"/>
	</linearGradient>
	<polygon class="st42" points="580,1494 573.8,1497.6 573.8,1608.5 580,1604.9 	"/>
	<linearGradient id="SVGID_33_" gradientUnits="userSpaceOnUse" x1="158.2537" y1="1420.4836" x2="158.5657" y2="1354.3407">
		<stop  offset="0" style="stop-color:#FFFFFF;stop-opacity:0"/>
		<stop  offset="1" style="stop-color:#FFFFFF;stop-opacity:0.7"/>
	</linearGradient>
	<polygon class="st43" points="150.2,1350.6 150.3,1416.5 166.6,1425.9 166.8,1360 	"/>
	<linearGradient id="SVGID_34_" gradientUnits="userSpaceOnUse" x1="174.9044" y1="1402.943" x2="175.1395" y2="1353.0991">
		<stop  offset="0" style="stop-color:#FFFFFF;stop-opacity:0"/>
		<stop  offset="1" style="stop-color:#FFFFFF;stop-opacity:0.7"/>
	</linearGradient>
	<polygon class="st44" points="183.3,1350.4 166.8,1360 166.7,1406.9 183.3,1397.4 	"/>
</g>
<rect x="1421.8" y="-1.2" class="st45" width="18.2" height="18.2"/>
<g>
	<g>
		<defs>
			<polygon id="SVGID_35_" points="1265,1018.3 1289,1031.7 1289,1004.7 1265,991.1 			"/>
		</defs>
		<clipPath id="SVGID_36_">
			<use xlink:href="#SVGID_35_"  style="overflow:visible;"/>
		</clipPath>
		<g class="st46">
			<defs>
				<rect id="SVGID_37_" x="1" y="-30.3" width="1440" height="5003"/>
			</defs>
			<clipPath id="SVGID_38_">
				<use xlink:href="#SVGID_37_"  style="overflow:visible;"/>
			</clipPath>
			<rect x="1260" y="986.1" class="st47" width="34" height="50.7"/>
		</g>
	</g>
	<g>
		<defs>
			<polygon id="SVGID_39_" points="1289.3,976.7 1265,990.6 1289.1,1004.2 1313,990.4 			"/>
		</defs>
		<clipPath id="SVGID_40_">
			<use xlink:href="#SVGID_39_"  style="overflow:visible;"/>
		</clipPath>
		<g class="st48">
			<defs>
				<rect id="SVGID_41_" x="1" y="-30.3" width="1440" height="5003"/>
			</defs>
			<clipPath id="SVGID_42_">
				<use xlink:href="#SVGID_41_"  style="overflow:visible;"/>
			</clipPath>
			<rect x="1260" y="971.7" class="st49" width="58" height="37.5"/>
		</g>
	</g>
	<g>
		<defs>
			<polygon id="SVGID_43_" points="1289,1003.6 1289,1030.5 1313,1016.8 1312.8,989.9 			"/>
		</defs>
		<clipPath id="SVGID_44_">
			<use xlink:href="#SVGID_43_"  style="overflow:visible;"/>
		</clipPath>
		<g class="st50">
			<defs>
				<rect id="SVGID_45_" x="1" y="-30.3" width="1440" height="5003"/>
			</defs>
			<clipPath id="SVGID_46_">
				<use xlink:href="#SVGID_45_"  style="overflow:visible;"/>
			</clipPath>
			<rect x="1284" y="984.9" class="st51" width="34" height="50.7"/>
		</g>
	</g>
	<g>
		<defs>
			<polygon id="SVGID_47_" points="24,598.3 48,611.7 48,584.7 24,571.1 			"/>
		</defs>
		<clipPath id="SVGID_48_">
			<use xlink:href="#SVGID_47_"  style="overflow:visible;"/>
		</clipPath>
		<g class="st52">
			<defs>
				<rect id="SVGID_49_" x="1" y="-30.3" width="1440" height="5003"/>
			</defs>
			<clipPath id="SVGID_50_">
				<use xlink:href="#SVGID_49_"  style="overflow:visible;"/>
			</clipPath>
			<rect x="19" y="566.1" class="st53" width="34" height="50.7"/>
		</g>
	</g>
	<g>
		<defs>
			<polygon id="SVGID_51_" points="48.3,556.7 24,570.6 48.1,584.2 72,570.4 			"/>
		</defs>
		<clipPath id="SVGID_52_">
			<use xlink:href="#SVGID_51_"  style="overflow:visible;"/>
		</clipPath>
		<g class="st54">
			<defs>
				<rect id="SVGID_53_" x="1" y="-30.3" width="1440" height="5003"/>
			</defs>
			<clipPath id="SVGID_54_">
				<use xlink:href="#SVGID_53_"  style="overflow:visible;"/>
			</clipPath>
			<rect x="19" y="551.7" class="st55" width="58" height="37.5"/>
		</g>
	</g>
	<g>
		<defs>
			<polygon id="SVGID_55_" points="48,583.6 48,610.5 72,596.8 71.8,569.9 			"/>
		</defs>
		<clipPath id="SVGID_56_">
			<use xlink:href="#SVGID_55_"  style="overflow:visible;"/>
		</clipPath>
		<g class="st56">
			<defs>
				<rect id="SVGID_57_" x="1" y="-30.3" width="1440" height="5003"/>
			</defs>
			<clipPath id="SVGID_58_">
				<use xlink:href="#SVGID_57_"  style="overflow:visible;"/>
			</clipPath>
			<rect x="43" y="564.9" class="st57" width="34" height="50.7"/>
		</g>
	</g>
	<g>
		<defs>
			<polygon id="SVGID_59_" points="-15,1007.3 9,1020.7 9,993.7 -15,980.1 			"/>
		</defs>
		<clipPath id="SVGID_60_">
			<use xlink:href="#SVGID_59_"  style="overflow:visible;"/>
		</clipPath>
		<g class="st58">
			<defs>
				<rect id="SVGID_61_" x="1" y="-30.3" width="1440" height="5003"/>
			</defs>
			<clipPath id="SVGID_62_">
				<use xlink:href="#SVGID_61_"  style="overflow:visible;"/>
			</clipPath>
			<rect x="-20" y="975.1" class="st59" width="34" height="50.7"/>
		</g>
	</g>
	<g>
		<defs>
			<polygon id="SVGID_63_" points="9.3,965.7 -15,979.6 9.1,993.2 33,979.4 			"/>
		</defs>
		<clipPath id="SVGID_64_">
			<use xlink:href="#SVGID_63_"  style="overflow:visible;"/>
		</clipPath>
		<g class="st60">
			<defs>
				<rect id="SVGID_65_" x="1" y="-30.3" width="1440" height="5003"/>
			</defs>
			<clipPath id="SVGID_66_">
				<use xlink:href="#SVGID_65_"  style="overflow:visible;"/>
			</clipPath>
			<rect x="-20" y="960.7" class="st61" width="58" height="37.5"/>
		</g>
	</g>
	<g>
		<defs>
			<polygon id="SVGID_67_" points="9,992.6 9,1019.5 33,1005.8 32.8,978.9 			"/>
		</defs>
		<clipPath id="SVGID_68_">
			<use xlink:href="#SVGID_67_"  style="overflow:visible;"/>
		</clipPath>
		<g class="st62">
			<defs>
				<rect id="SVGID_69_" x="1" y="-30.3" width="1440" height="5003"/>
			</defs>
			<clipPath id="SVGID_70_">
				<use xlink:href="#SVGID_69_"  style="overflow:visible;"/>
			</clipPath>
			<rect x="4" y="973.9" class="st63" width="34" height="50.7"/>
		</g>
	</g>
	<g>
		<defs>
			<polygon id="SVGID_71_" points="68,255 87,265.7 87,244.1 68,233.2 			"/>
		</defs>
		<clipPath id="SVGID_72_">
			<use xlink:href="#SVGID_71_"  style="overflow:visible;"/>
		</clipPath>
		<g class="st64">
			<defs>
				<rect id="SVGID_73_" x="1" y="-30.3" width="1440" height="5003"/>
			</defs>
			<clipPath id="SVGID_74_">
				<use xlink:href="#SVGID_73_"  style="overflow:visible;"/>
			</clipPath>
			<rect x="63" y="228.2" class="st65" width="29" height="42.5"/>
		</g>
	</g>
	<g>
		<defs>
			<polygon id="SVGID_75_" points="87.2,221.7 68,232.8 87.1,243.7 106,232.7 			"/>
		</defs>
		<clipPath id="SVGID_76_">
			<use xlink:href="#SVGID_75_"  style="overflow:visible;"/>
		</clipPath>
		<g class="st66">
			<defs>
				<rect id="SVGID_77_" x="1" y="-30.3" width="1440" height="5003"/>
			</defs>
			<clipPath id="SVGID_78_">
				<use xlink:href="#SVGID_77_"  style="overflow:visible;"/>
			</clipPath>
			<rect x="63" y="216.7" class="st67" width="48" height="32"/>
		</g>
	</g>
	<g>
		<defs>
			<polygon id="SVGID_79_" points="87,243.3 87,264.8 106,253.8 105.9,232.3 			"/>
		</defs>
		<clipPath id="SVGID_80_">
			<use xlink:href="#SVGID_79_"  style="overflow:visible;"/>
		</clipPath>
		<g class="st68">
			<defs>
				<rect id="SVGID_81_" x="1" y="-30.3" width="1440" height="5003"/>
			</defs>
			<clipPath id="SVGID_82_">
				<use xlink:href="#SVGID_81_"  style="overflow:visible;"/>
			</clipPath>
			<rect x="82" y="227.3" class="st69" width="29" height="42.5"/>
		</g>
	</g>
	<g>
		<defs>
			<polygon id="SVGID_83_" points="1393,625.3 1417,638.7 1417,611.7 1393,598.1 			"/>
		</defs>
		<clipPath id="SVGID_84_">
			<use xlink:href="#SVGID_83_"  style="overflow:visible;"/>
		</clipPath>
		<g class="st70">
			<defs>
				<rect id="SVGID_85_" x="1" y="-30.3" width="1440" height="5003"/>
			</defs>
			<clipPath id="SVGID_86_">
				<use xlink:href="#SVGID_85_"  style="overflow:visible;"/>
			</clipPath>
			<rect x="1388" y="593.1" class="st71" width="34" height="50.7"/>
		</g>
	</g>
	<g>
		<defs>
			<polygon id="SVGID_87_" points="1417.3,583.7 1393,597.6 1417.1,611.2 1441,597.4 			"/>
		</defs>
		<clipPath id="SVGID_88_">
			<use xlink:href="#SVGID_87_"  style="overflow:visible;"/>
		</clipPath>
		<g class="st72">
			<defs>
				<rect id="SVGID_89_" x="1" y="-30.3" width="1440" height="5003"/>
			</defs>
			<clipPath id="SVGID_90_">
				<use xlink:href="#SVGID_89_"  style="overflow:visible;"/>
			</clipPath>
			<rect x="1388" y="578.7" class="st73" width="58" height="37.5"/>
		</g>
	</g>
	<g>
		<defs>
			<polygon id="SVGID_91_" points="1417,610.6 1417,637.5 1441,623.8 1440.8,596.9 			"/>
		</defs>
		<clipPath id="SVGID_92_">
			<use xlink:href="#SVGID_91_"  style="overflow:visible;"/>
		</clipPath>
		<g class="st74">
			<defs>
				<rect id="SVGID_93_" x="1" y="-30.3" width="1440" height="5003"/>
			</defs>
			<clipPath id="SVGID_94_">
				<use xlink:href="#SVGID_93_"  style="overflow:visible;"/>
			</clipPath>
			<rect x="1412" y="591.9" class="st75" width="34" height="50.7"/>
		</g>
	</g>
	<g>
		<defs>
			<polygon id="SVGID_95_" points="1211,447.7 1211,465.8 1227,474.7 1227,456.8 			"/>
		</defs>
		<clipPath id="SVGID_96_">
			<use xlink:href="#SVGID_95_"  style="overflow:visible;"/>
		</clipPath>
		<g class="st76">
			<defs>
				<rect id="SVGID_97_" x="1" y="-30.3" width="1440" height="5003"/>
			</defs>
			<clipPath id="SVGID_98_">
				<use xlink:href="#SVGID_97_"  style="overflow:visible;"/>
			</clipPath>
			<rect x="1206" y="442.7" class="st77" width="26" height="37"/>
		</g>
	</g>
	<g>
		<defs>
			<polygon id="SVGID_99_" points="1226.7,438.7 1211,447.8 1226.6,456.7 1242,447.7 			"/>
		</defs>
		<clipPath id="SVGID_100_">
			<use xlink:href="#SVGID_99_"  style="overflow:visible;"/>
		</clipPath>
		<g class="st78">
			<defs>
				<rect id="SVGID_101_" x="1" y="-30.3" width="1440" height="5003"/>
			</defs>
			<clipPath id="SVGID_102_">
				<use xlink:href="#SVGID_101_"  style="overflow:visible;"/>
			</clipPath>
			<rect x="1206" y="433.7" class="st79" width="41" height="28"/>
		</g>
	</g>
	<g>
		<defs>
			<polygon id="SVGID_103_" points="1227,474.7 1243,465.6 1242.9,447.7 1227,456.9 			"/>
		</defs>
		<clipPath id="SVGID_104_">
			<use xlink:href="#SVGID_103_"  style="overflow:visible;"/>
		</clipPath>
		<g class="st80">
			<defs>
				<rect id="SVGID_105_" x="1" y="-30.3" width="1440" height="5003"/>
			</defs>
			<clipPath id="SVGID_106_">
				<use xlink:href="#SVGID_105_"  style="overflow:visible;"/>
			</clipPath>
			<rect x="1222" y="442.7" class="st81" width="26" height="37"/>
		</g>
	</g>
	<g>
		<defs>
			<polygon id="SVGID_107_" points="232,673.3 241.6,678.7 241.6,667.8 232,662.3 			"/>
		</defs>
		<clipPath id="SVGID_108_">
			<use xlink:href="#SVGID_107_"  style="overflow:visible;"/>
		</clipPath>
		<g class="st82">
			<defs>
				<rect id="SVGID_109_" x="1" y="-30.3" width="1440" height="5003"/>
			</defs>
			<clipPath id="SVGID_110_">
				<use xlink:href="#SVGID_109_"  style="overflow:visible;"/>
			</clipPath>
			<rect x="227" y="657.3" class="st83" width="19.6" height="26.4"/>
		</g>
	</g>
	<g>
		<defs>
			<polygon id="SVGID_111_" points="241.6,656.7 232,662.3 241.6,667.8 251,662.2 			"/>
		</defs>
		<clipPath id="SVGID_112_">
			<use xlink:href="#SVGID_111_"  style="overflow:visible;"/>
		</clipPath>
		<g class="st84">
			<defs>
				<rect id="SVGID_113_" x="1" y="-30.3" width="1440" height="5003"/>
			</defs>
			<clipPath id="SVGID_114_">
				<use xlink:href="#SVGID_113_"  style="overflow:visible;"/>
			</clipPath>
			<rect x="227" y="651.7" class="st85" width="29" height="21.1"/>
		</g>
	</g>
	<g>
		<defs>
			<polygon id="SVGID_115_" points="241.6,667.8 241.6,678.7 251.1,673.2 251,662.2 			"/>
		</defs>
		<clipPath id="SVGID_116_">
			<use xlink:href="#SVGID_115_"  style="overflow:visible;"/>
		</clipPath>
		<g class="st86">
			<defs>
				<rect id="SVGID_117_" x="1" y="-30.3" width="1440" height="5003"/>
			</defs>
			<clipPath id="SVGID_118_">
				<use xlink:href="#SVGID_117_"  style="overflow:visible;"/>
			</clipPath>
			<rect x="236.6" y="657.2" class="st87" width="19.6" height="26.5"/>
		</g>
	</g>
	<g>
		<defs>
			<polygon id="SVGID_119_" points="1343,183.3 1352.6,188.7 1352.6,177.8 1343,172.3 			"/>
		</defs>
		<clipPath id="SVGID_120_">
			<use xlink:href="#SVGID_119_"  style="overflow:visible;"/>
		</clipPath>
		<g class="st88">
			<defs>
				<rect id="SVGID_121_" x="1" y="-30.3" width="1440" height="5003"/>
			</defs>
			<clipPath id="SVGID_122_">
				<use xlink:href="#SVGID_121_"  style="overflow:visible;"/>
			</clipPath>
			<rect x="1338" y="167.3" class="st89" width="19.6" height="26.4"/>
		</g>
	</g>
	<g>
		<defs>
			<polygon id="SVGID_123_" points="1352.6,166.7 1343,172.3 1352.6,177.8 1362,172.2 			"/>
		</defs>
		<clipPath id="SVGID_124_">
			<use xlink:href="#SVGID_123_"  style="overflow:visible;"/>
		</clipPath>
		<g class="st90">
			<defs>
				<rect id="SVGID_125_" x="1" y="-30.3" width="1440" height="5003"/>
			</defs>
			<clipPath id="SVGID_126_">
				<use xlink:href="#SVGID_125_"  style="overflow:visible;"/>
			</clipPath>
			<rect x="1338" y="161.7" class="st91" width="29" height="21.1"/>
		</g>
	</g>
	<g>
		<defs>
			<polygon id="SVGID_127_" points="1352.6,177.8 1352.6,188.7 1362.1,183.2 1362,172.2 			"/>
		</defs>
		<clipPath id="SVGID_128_">
			<use xlink:href="#SVGID_127_"  style="overflow:visible;"/>
		</clipPath>
		<g class="st92">
			<defs>
				<rect id="SVGID_129_" x="1" y="-30.3" width="1440" height="5003"/>
			</defs>
			<clipPath id="SVGID_130_">
				<use xlink:href="#SVGID_129_"  style="overflow:visible;"/>
			</clipPath>
			<rect x="1347.6" y="167.2" class="st93" width="19.6" height="26.5"/>
		</g>
	</g>
</g>
</svg>
